PathFileType	4	(X/Y/Z)	E:\Qualisys_Data\Carbon_Farble_Plate\Data\Amateur_Runner\S14\T2\S14T2V24_c3d.trc
DataRate	CameraRate	NumFrames	NumMarkers	Units	OrigDataRate	OrigDataStartFrame	OrigNumFrames
200.000000	200.000000	4	39	mm	200.000000	78	315
Frame#	Time	LSHO			RSHO			LICST			RICST			LASIS			LHEEL			RASIS			LTROC			RTROC			SACR			LTH1			LSK4			LTH2			LTH3			RHM5			LSK2			LTH4			RTH1			LTOE			RTH2			RTH3			RTH4			LLEP			RLEP			LSK1			LSK3			RSK1			LHM5			RSK2			LFT1			RSK3			RSK4			LLME			RLME			RTOE			RHEEL			RFT1			RFT2			LFT2			
		X1	Y1	Z1	X2	Y2	Z2	X3	Y3	Z3	X4	Y4	Z4	X5	Y5	Z5	X6	Y6	Z6	X7	Y7	Z7	X8	Y8	Z8	X9	Y9	Z9	X10	Y10	Z10	X11	Y11	Z11	X12	Y12	Z12	X13	Y13	Z13	X14	Y14	Z14	X15	Y15	Z15	X16	Y16	Z16	X17	Y17	Z17	X18	Y18	Z18	X19	Y19	Z19	X20	Y20	Z20	X21	Y21	Z21	X22	Y22	Z22	X23	Y23	Z23	X24	Y24	Z24	X25	Y25	Z25	X26	Y26	Z26	X27	Y27	Z27	X28	Y28	Z28	X29	Y29	Z29	X30	Y30	Z30	X31	Y31	Z31	X32	Y32	Z32	X33	Y33	Z33	X34	Y34	Z34	X35	Y35	Z35	X36	Y36	Z36	X37	Y37	Z37	X38	Y38	Z38	X39	Y39	Z39	

79	0.39	-1631.437133789062	1482.508911132812	-487.6889038085938	-1517.79541015625	1461.377075195312	-221.6266021728516	-1625.586547851562	1025.113159179688	-477.6895751953125	-1580.360473632812	1014.986145019531	-207.5882720947266	-1580.920776367188	971.9950561523438	-456.3409423828125	-1528.418334960938	161.3206634521484	-363.0956115722656	-1566.454833984375	968.05908203125	-227.0840454101562	-1695.564086914062	910.3788452148438	-505.5994873046875	-1734.068603515625	927.8535766601562	-164.6688079833984	-1741.535522460938	1028.441040039062	-336.6279602050781	-1506.856201171875	732.844970703125	-488.6166076660156	-1504.128784179688	376.3114624023438	-449.2449951171875	-1566.859252929688	687.8694458007812	-471.2029418945312	-1441.7861328125	659.7125854492188	-463.8516845703125	-2225.575439453125	206.5370025634766	-194.8967132568359	-1496.330444335938	474.2357788085938	-465.451904296875	-1505.835815429688	614.2560424804688	-456.6757507324219	-1721.700805664062	682.611328125	-177.788330078125	-1269.2666015625	172.6432952880859	-394.290283203125	-1791.397583007812	723.4240112304688	-170.1397247314453	-1768.34375	596.8181762695312	-203.9163665771484	-1841.539184570312	638.13818359375	-190.9341278076172	-1448.403564453125	573.6049194335938	-463.5839233398438	-1863.086181640625	566.1742553710938	-197.7616882324219	-1416.189453125	471.3662719726562	-460.1064147949219	-1423.8779296875	369.6687622070312	-445.1212158203125	-1944.508666992188	469.3470764160156	-194.0862274169922	-1336.1552734375	142.2453460693359	-453.4493408203125	-1998.249389648438	536.3296508789062	-195.639892578125	-1511.887573242188	135.1049957275391	-340.6981506347656	-2029.845092773438	410.0002746582031	-206.6778411865234	-2072.5908203125	476.6175231933594	-208.2750244140625	-1472.56982421875	193.9907531738281	-426.6076049804688	-2190.57080078125	347.368896484375	-226.8441925048828	-2188.825439453125	130.2033233642578	-248.7958526611328	-2221.635498046875	387.8559875488281	-286.5402221679688	-2245.220458984375	364.4892883300781	-315.6883850097656	-2252.59228515625	382.6104431152344	-263.13330078125	-1522.780029296875	128.609130859375	-395.7640686035156
80	0.395	-1610.693725585938	1482.25	-488.5280151367188	-1494.902954101562	1461.563232421875	-222.2659606933594	-1602.281005859375	1023.600646972656	-477.4627380371094	-1558.197998046875	1015.472534179688	-207.5639190673828	-1561.200805664062	969.9700927734376	-455.6260986328125	-1490.932495117188	152.2002258300781	-361.2444458007812	-1544.214721679688	967.9085693359376	-226.8629760742188	-1674.102172851562	908.9168090820312	-504.8178100585938	-1712.632080078125	928.3901977539062	-164.9232940673828	-1719.793212890625	1028.569091796875	-337.3750915527344	-1487.258422851562	729.2162475585938	-489.3940124511719	-1477.279174804688	368.4524230957031	-447.3717346191406	-1547.904907226562	685.3294067382812	-471.4940185546875	-1423.142822265625	655.5582275390625	-463.87060546875	-2209.82666015625	216.6410522460938	-193.9534454345703	-1474.923950195312	466.848876953125	-464.5250244140625	-1487.917602539062	611.1981201171875	-455.65478515625	-1698.352661132812	682.2221069335938	-178.1731262207031	-1232.463012695312	177.6783905029297	-393.2313842773438	-1767.484130859375	722.5908813476562	-169.5767669677734	-1744.963745117188	597.0728759765625	-204.1438293457031	-1818.021362304688	637.4028930664062	-190.2245025634766	-1430.286865234375	568.54931640625	-463.0162963867188	-1839.89404296875	565.8399658203125	-196.9754638671875	-1394.212158203125	467.4895935058594	-459.3966979980469	-1397.18359375	365.5692138671875	-444.5354309082031	-1926.673095703125	472.1720581054688	-195.8347320556641	-1297.937133789062	144.2102661132812	-452.6195983886719	-1975.564575195312	540.6840209960938	-195.1298217773438	-1472.932250976562	126.7838134765625	-338.9432067871094	-2010.589111328125	415.0967712402344	-205.8402557373047	-2052.547119140625	482.737548828125	-208.4264526367188	-1436.509765625	187.7563781738281	-425.2797546386719	-2172.6337890625	356.1047668457031	-226.6430816650391	-2174.648193359375	139.4919891357422	-247.0032653808594	-2203.921875	397.1619262695312	-287.0445556640625	-2227.75048828125	373.4411010742188	-315.9682922363281	-2234.6826171875	391.6307067871094	-263.15576171875	-1483.518310546875	119.6298294067383	-393.7794494628906
81	0.4	-1589.033447265625	1481.181518554688	-488.4824523925781	-1472.542724609375	1461.6962890625	-223.7774047851562	-1581.255981445312	1021.823669433594	-477.1893310546875	-1535.906982421875	1015.80322265625	-207.5696716308594	-1538.740234375	968.5095825195312	-455.0037536621094	-1452.784057617188	144.1395568847656	-358.5188293457031	-1521.793823242188	968.0939331054688	-226.1614379882812	-1652.748657226562	907.525634765625	-504.0711669921875	-1689.12353515625	927.4363403320312	-164.4665374755859	-1697.48828125	1027.924072265625	-337.0284423828125	-1467.705932617188	725.2113647460938	-490.0689086914062	-1452.61767578125	362.0176696777344	-445.7087707519531	-1529.106811523438	682.5459594726562	-471.5126953125	-1404.759887695312	650.9132080078125	-463.9892578125	-2194.09375	225.8823394775391	-192.6898956298828	-1453.393432617188	460.0276184082031	-463.0689392089844	-1470.39892578125	607.426513671875	-455.2156372070312	-1673.846313476562	681.5530395507812	-178.5372161865234	-1197.392578125	183.0886383056641	-392.5899353027344	-1742.491455078125	721.7947998046875	-168.3579864501953	-1721.15576171875	596.4703369140625	-203.4429168701172	-1794.139770507812	637.0475463867188	-189.7844085693359	-1412.237915039062	563.15673828125	-462.6018981933594	-1816.82470703125	565.2796020507812	-196.2027435302734	-1372.276245117188	463.6686096191406	-458.8498229980469	-1371.091674804688	361.7412109375	-443.5457763671875	-1904.202514648438	473.5116271972656	-193.6761474609375	-1261.7841796875	146.4154663085938	-451.8236694335938	-1953.332641601562	544.25732421875	-195.1250305175781	-1435.642700195312	119.0374984741211	-337.2849731445312	-1991.369995117188	419.4145202636719	-206.0325317382812	-2030.598876953125	488.2040100097656	-208.7372894287109	-1402.011840820312	182.0829620361328	-423.6455688476562	-2154.06689453125	365.7462768554688	-226.5637664794922	-2160.0068359375	147.9837188720703	-244.9864959716797	-2185.43896484375	406.0910339355469	-287.1138916015625	-2209.567626953125	382.6511535644531	-315.5783081054688	-2216.21826171875	401.5259704589844	-263.1110229492188	-1444.865112304688	111.7339553833008	-391.86279296875
82	0.405	-1568.1025390625	1480.20166015625	-489.3107299804688	-1450.178344726562	1461.57861328125	-224.8027648925781	-1557.169555664062	1019.967041015625	-477.1799011230469	-1513.786499023438	1015.276489257812	-207.4781951904297	-1517.213012695312	966.0970458984376	-454.1424560546875	-1417.82666015625	137.0430450439453	-357.2105102539062	-1499.32958984375	967.5676879882812	-226.0556640625	-1631.39697265625	906.20654296875	-502.99462890625	-1666.31689453125	926.7357788085938	-164.58203125	-1675.60107421875	1027.437377929688	-337.4711608886719	-1447.681640625	720.1826782226562	-491.3107604980469	-1426.537353515625	355.0337524414062	-443.7266235351562	-1511.25830078125	679.698486328125	-471.4211120605469	-1386.687622070312	645.5695190429688	-464.6274719238281	-2178.10498046875	235.3771820068359	-191.3624725341797	-1432.002197265625	453.4999084472656	-461.2024230957031	-1452.989868164062	603.014404296875	-453.8689270019531	-1650.352172851562	680.48193359375	-179.4228973388672	-1164.1162109375	188.1870880126953	-392.1872863769531	-1719.248901367188	720.6307983398438	-168.7653503417969	-1698.068481445312	594.801025390625	-205.0755310058594	-1770.38720703125	635.9508666992188	-189.5188446044922	-1394.546508789062	557.1222534179688	-462.2323913574219	-1793.797607421875	564.5299072265625	-196.0353698730469	-1351.111328125	460.1946411132812	-457.8675231933594	-1345.545043945312	358.5660400390625	-443.2264099121094	-1882.594970703125	475.6572570800781	-193.7479553222656	-1225.556518554688	146.9033203125	-451.3699340820312	-1930.864868164062	547.5658569335938	-196.0305480957031	-1399.28173828125	113.4702224731445	-335.4922180175781	-1970.754272460938	423.71728515625	-205.2182312011719	-2008.774536132812	493.0085144042969	-209.6319274902344	-1367.933837890625	176.3796234130859	-420.9383239746094	-2135.748291015625	373.5990295410156	-226.4228363037109	-2145.686767578125	156.8428192138672	-243.8720703125	-2165.60498046875	414.8692321777344	-287.2141418457031	-2191.076171875	392.5650329589844	-316.2328796386719	-2196.580810546875	410.5999145507812	-263.4284973144531	-1406.551147460938	105.3420333862305	-389.5425109863281
